<?xml version="1.0" encoding="utf-8"?>
<!-- Generator: Adobe Illustrator 16.0.0, SVG Export Plug-In . SVG Version: 6.00 Build 0)  -->
<!DOCTYPE svg PUBLIC "-//W3C//DTD SVG 1.1//EN" "http://www.w3.org/Graphics/SVG/1.1/DTD/svg11.dtd">
<svg version="1.1" id="Layer_1" xmlns="http://www.w3.org/2000/svg" xmlns:xlink="http://www.w3.org/1999/xlink" x="0px" y="0px"
	 width="612px" height="792px" viewBox="0 0 612 792" enable-background="new 0 0 612 792" xml:space="preserve">
<g>
	<path fill="#FFFFFF" d="M42.574,395.132c-8.402,0-15.265-2.661-20.586-7.983s-7.983-12.184-7.983-20.586V143.049
		c0-8.403,2.661-15.265,7.983-20.586c5.322-5.322,12.184-7.983,20.586-7.983h47.616v30.25H55.738c-5.042,0-7.563,2.801-7.563,8.403
		v203.346c0,5.602,2.521,8.403,7.563,8.403h34.451v30.25H42.574z"/>
	<path fill="#FFFFFF" d="M112.277,352.838V156.774h126.042v33.61h-89.069v46.775h81.227v33.611h-81.227v48.456h90.75v33.61H112.277z
		"/>
	<path fill="#FFFFFF" d="M259.101,352.838V156.774h123.24v33.61h-86.268v47.336h79.546v33.611h-79.546v81.506H259.101z"/>
	<path fill="#FFFFFF" d="M521.811,677.52v-30.249h34.451c5.042,0,7.563-2.802,7.563-8.403V435.521c0-5.602-2.521-8.402-7.563-8.402
		h-34.451v-30.25h47.615c8.403,0,15.266,2.661,20.587,7.982c5.322,5.322,7.982,12.185,7.982,20.587v223.514
		c0,8.402-2.66,15.265-7.982,20.586c-5.321,5.322-12.184,7.982-20.587,7.982H521.811z"/>
</g>
<g>
	<path fill="#FFFFFF" d="M260.147,636.806V440.502h59.985c30.322,0,53.239,8.219,68.753,24.653
		c15.511,16.437,23.269,40.694,23.269,72.773c0,32.872-7.801,57.569-23.401,74.092c-15.602,16.524-38.957,24.785-70.07,24.785
		H260.147z M297.193,604.374h20.171c20.214,0,34.805-5.208,43.77-15.622c8.965-10.416,13.447-27.356,13.447-50.823
		c0-22.235-4.659-38.583-13.975-49.043c-9.317-10.458-23.907-15.688-43.77-15.688h-19.644V604.374z"/>
	<path fill="#FFFFFF" d="M448.937,636.806V440.502h37.178v196.304H448.937z"/>
</g>
</svg>
